<svg xmlns="http://www.w3.org/2000/svg" viewBox="0 0 100 100" width="100%" height="100%">
  <rect width="100" height="100" fill="#05050A"/>
  <!-- Abstract Hand shape with AI nodes -->
  <path d="M40 70 L40 40 A5 5 0 0 1 50 40 L50 70" stroke="#9d4edd" stroke-width="4" fill="none"/>
  <path d="M50 70 L50 30 A5 5 0 0 1 60 30 L60 70" stroke="#00f3ff" stroke-width="4" fill="none"/>
  <path d="M60 70 L60 35 A5 5 0 0 1 70 35 L70 70" stroke="#9d4edd" stroke-width="4" fill="none"/>
  <path d="M70 70 L70 45 A5 5 0 0 1 80 45 L80 65" stroke="#00f3ff" stroke-width="4" fill="none"/>
  <path d="M40 55 L30 55 A5 5 0 0 0 30 65 L40 65" stroke="#9d4edd" stroke-width="4" fill="none"/>
  <path d="M30 65 Q45 85 60 85 L80 65" stroke="#00f3ff" stroke-width="4" fill="none"/>
  <!-- AI Nodes -->
  <circle cx="50" cy="30" r="3" fill="#ffffff"/>
  <circle cx="60" cy="35" r="3" fill="#ffffff"/>
  <circle cx="70" cy="45" r="3" fill="#ffffff"/>
  <circle cx="40" cy="40" r="3" fill="#ffffff"/>
  <circle cx="30" cy="55" r="3" fill="#ffffff"/>
  <!-- Data Connection Lines -->
  <path d="M50 30 L60 35 L70 45 L80 65" stroke="rgba(255,255,255,0.2)" stroke-width="1" fill="none" stroke-dasharray="2,2" />
  <path d="M40 40 L30 55" stroke="rgba(255,255,255,0.2)" stroke-width="1" fill="none" stroke-dasharray="2,2" />
</svg>
